<?xml version="1.0" standalone="no"?>
<!DOCTYPE svg PUBLIC "-//W3C//DTD SVG 20010904//EN"
 "http://www.w3.org/TR/2001/REC-SVG-20010904/DTD/svg10.dtd">
<svg version="1.0" xmlns="http://www.w3.org/2000/svg"
 width="504.000000pt" height="301.000000pt" viewBox="0 0 504.000000 301.000000"
 preserveAspectRatio="xMidYMid meet">

<g transform="translate(0.000000,301.000000) scale(0.100000,-0.100000)"
fill="#000000" stroke="none">
<path d="M0 1505 l0 -1505 2520 0 2520 0 0 1505 0 1505 -2520 0 -2520 0 0
-1505z m1793 681 c257 -241 467 -441 467 -445 0 -4 -17 -23 -38 -43 l-37 -37
-410 385 c-225 211 -413 384 -416 384 -4 0 -247 -258 -540 -574 l-534 -574
-42 40 -41 41 266 286 c147 157 388 416 536 575 l270 289 -77 74 c-42 40 -77
77 -77 80 0 4 17 24 37 45 l37 38 66 -63 c36 -35 275 -261 533 -501z m-373
-891 l0 -145 -155 0 -155 0 0 138 c0 76 3 142 7 145 3 4 73 7 155 7 l148 0 0
-145z m398 -2 l3 -143 -171 0 -170 0 0 145 0 145 168 -2 167 -3 3 -142z m725
58 c4 -16 -3 -19 -46 -24 -27 -4 -51 -8 -54 -10 -2 -2 10 -45 26 -95 29 -88
92 -364 107 -465 3 -27 10 -45 14 -40 4 4 15 46 25 93 26 128 131 410 152 410
4 0 21 -5 39 -12 30 -10 34 -17 39 -57 17 -143 30 -210 61 -336 19 -76 37
-141 39 -143 2 -3 7 9 11 24 34 150 54 203 108 289 57 88 94 167 101 216 6 40
4 49 -20 77 -35 42 -82 43 -97 2 -8 -22 9 -60 27 -60 15 0 19 10 16 43 -3 20
9 22 33 4 24 -17 17 -45 -16 -70 -33 -24 -72 -25 -98 -2 -55 50 19 165 105
165 69 0 100 -52 92 -153 -5 -62 -16 -90 -101 -261 -57 -112 -105 -225 -118
-273 -17 -61 -27 -83 -39 -83 -27 0 -154 316 -184 458 -4 22 -11 30 -17 24
-16 -16 -84 -221 -113 -338 -24 -101 -29 -112 -51 -117 -19 -3 -25 1 -29 17
-3 11 -12 53 -21 91 -33 150 -158 495 -197 547 -11 14 -20 15 -56 6 -23 -6
-44 -8 -48 -5 -16 17 14 36 89 56 179 47 213 50 221 22z m1711 -11 c5 -28 9
-30 48 -30 179 -1 336 -97 374 -228 32 -111 -3 -210 -112 -312 -92 -85 -189
-126 -346 -145 -53 -6 -58 -5 -58 13 0 20 25 32 68 32 21 0 23 3 18 43 -3 23
-8 74 -11 112 -8 86 -40 311 -55 382 -13 58 -19 59 -80 14 l-35 -26 40 -5 c32
-4 41 -10 49 -33 13 -36 1 -56 -47 -80 -44 -22 -81 -14 -110 25 -38 51 10 123
113 169 48 22 50 24 44 55 -5 30 -4 33 23 37 66 10 70 8 77 -23z m-666 -27 c2
-8 -5 -13 -16 -13 -27 0 -97 -49 -127 -90 -97 -131 -93 -349 7 -461 47 -52
104 -81 172 -86 57 -5 70 -3 109 20 84 50 137 162 137 292 0 92 -21 161 -64
212 -45 52 -90 73 -156 73 -47 0 -56 -4 -91 -39 -42 -41 -50 -79 -24 -101 37
-30 113 1 85 34 -7 9 -20 16 -29 16 -14 -1 -14 -2 2 -14 15 -12 15 -15 2 -26
-12 -10 -18 -10 -30 0 -21 18 -19 57 4 70 49 25 91 -2 91 -60 0 -81 -92 -121
-145 -64 -56 60 -23 163 67 210 39 21 144 18 195 -6 66 -30 137 -102 168 -172
24 -53 27 -70 23 -133 -8 -122 -85 -253 -182 -310 -144 -84 -352 -29 -449 118
-60 91 -71 185 -36 289 36 108 106 189 203 234 54 25 77 27 84 7z m-2848 -395
c0 -205 3 -397 6 -426 l7 -52 2008 0 2009 0 0 -60 0 -60 -2300 0 -2300 0 0 60
0 60 231 0 231 0 -4 425 -4 425 58 0 58 0 0 -372z m680 27 l0 -146 -152 3
-153 3 -3 143 -3 142 156 0 155 0 0 -145z m398 3 l-3 -143 -167 -3 -168 -2 0
145 0 145 170 0 171 0 -3 -142z"/>
<path d="M4264 1229 c6 -43 26 -445 26 -522 0 -36 1 -37 28 -31 50 11 128 51
165 84 53 46 84 104 98 182 32 175 -76 313 -253 326 l-70 5 6 -44z"/>
<path d="M4050 1133 c0 -10 4 -24 9 -32 12 -19 51 4 51 31 0 21 -1 21 -13 4
-13 -17 -14 -17 -30 -1 -16 15 -17 15 -17 -2z"/>
</g>
</svg>
